<?xml version="1.0" encoding="UTF-8"?>
<svg xmlns="http://www.w3.org/2000/svg" version="1.1" viewBox="0 0 700 700">
  <!-- Generator: Adobe Illustrator 29.2.1, SVG Export Plug-In . SVG Version: 2.1.0 Build 116)  -->
  <defs>
    <style>
      .st0, .st1 {
        fill: #231f20;
      }

      .st2 {
        fill: #c6e7fb;
        stroke-width: 5px;
      }

      .st2, .st3, .st4, .st5, .st6, .st1, .st7 {
        stroke-miterlimit: 10;
      }

      .st2, .st3, .st5, .st6, .st1, .st7 {
        stroke: #231f20;
      }

      .st3 {
        fill: #4caef7;
      }

      .st3, .st4, .st5, .st6, .st7 {
        stroke-width: 4px;
      }

      .st4 {
        fill: #ecf0fc;
        stroke: #000;
      }

      .st5 {
        fill: #ec5354;
      }

      .st6 {
        fill: #624c82;
      }

      .st1 {
        stroke-width: 10px;
      }

      .st7 {
        fill: #c3e6f9;
      }
    </style>
  </defs>
  <g id="Layer_3">
    <path class="st1" d="M607.56,244.27c-17.4,0-32.18,11.14-37.63,26.68h-24.36v-18.07h-.01c0-.1.01-.19.01-.29,0-4.6-3.73-8.32-8.32-8.32s-8.32,3.73-8.32,8.32c0,.1.01.19.01.29h-.01v18.07h-9.05v-18.07h-.01c0-.1.01-.19.01-.29,0-4.6-3.73-8.32-8.32-8.32s-8.32,3.73-8.32,8.32c0,.1.01.19.01.29h-.01v18.07h-9.05v-18.07h-.01c0-.1.01-.19.01-.29,0-4.6-3.73-8.32-8.32-8.32-3.97,0-7.28,2.78-8.11,6.5-5.23-9.3-12.58-18.11-21.76-26.26v-20.7h-.04c0-.25.04-.49.04-.75,0-11.81-9.57-21.38-21.38-21.38-9.87,0-18.17,6.69-20.64,15.78-18.08-8.6-38.86-15.62-61.58-20.65v12.18c-10.87-2.33-22.23-4.14-33.98-5.37v-12.64c-6.84-.85-13.8-1.53-20.87-2.02v13.11c-5.37-.24-10.79-.37-16.28-.37-5.97,0-11.88.15-17.71.44v-14.16c-7.05.09-14.01.35-20.87.78v15.02c-11.76,1.29-23.12,3.16-33.98,5.54v-16.94c-12.99,1.97-25.48,4.57-37.36,7.73-2.88-2.72-5.87-5.37-8.97-7.93l-3.84,5.72c1.8,1.4,3.55,2.84,5.27,4.3-14.11,4.12-27.27,9.05-39.27,14.66,7.99,2.71,15.54,5.97,22.58,9.7-27.91.04-53.61,6.13-74.07,16.32,12.64,2.17,24.09,7.17,33.44,14.21-19.82,8.77-33.4,26.56-33.4,47.1s13.57,38.33,33.4,47.1c-9.35,7.03-20.8,12.04-33.44,14.21,20.53,10.23,46.33,16.32,74.35,16.32,1.82,0,3.63-.03,5.44-.08-7.53,4.44-15.72,8.32-24.46,11.53,9.21,4.11,19.07,7.83,29.49,11.1-7.62,10.93-19.39,28.85-30.64,50.16-18.73,35.49-27.6,72.46-27.6,72.46,0,0,.12.04.34.12.19.07.46.16.79.29.15.05.32.12.5.18.05.02.1.04.15.06.17.06.36.13.56.2.64.23,1.41.51,2.28.82.7.25,1.47.53,2.31.83.3.11.61.22.93.33,1.36.49,2.85,1.02,4.46,1.6,1.58.57,3.28,1.17,5.05,1.81.01,0,.03,0,.04.02.9.32,1.81.65,2.75.98,0,0,0,0,0,0,.41.15.82.29,1.24.44.07.03.14.05.22.08,0,0,0,0,0,0h0c18.62,6.67,42.84,15.31,44.94,15.91,3.45.99,17.26,6.41,19.97-12.82.74-5.25,1.8-13.72,4.58-24.13l-10.09-3.83h0c-.09-.05-.19-.07-.28-.1-4.3-1.63-6.46-6.44-4.83-10.73,1.63-4.3,6.44-6.46,10.73-4.83.09.03.18.08.27.12h0s9.39,3.55,9.39,3.55c1.77-4.51,3.89-9.2,6.41-14.03l-5.44-2.06h0c-.09-.05-.19-.07-.28-.1-4.3-1.63-6.46-6.44-4.83-10.73,1.63-4.3,6.44-6.46,10.73-4.83.09.03.18.08.27.12h0s8.23,3.11,8.23,3.11c2.63-3.86,5.54-7.75,8.78-11.66l-6.64-2.52h0c-.09-.05-.19-.07-.28-.1-4.3-1.63-6.46-6.44-4.83-10.73,1.63-4.3,6.44-6.46,10.73-4.83.09.03.18.08.27.12h0s12.96,4.9,12.96,4.9c8.55-8.27,18.73-16.41,30.9-24.13,1.89.03,3.78.04,5.68.04,55.84,0,106.77-11.17,145.37-29.53,2.46,9.09,10.77,15.78,20.64,15.78,11.81,0,21.38-9.57,21.38-21.38,0-.25-.03-.5-.04-.75h.04v-20.7c9.18-8.16,16.53-16.97,21.76-26.27.83,3.72,4.15,6.5,8.12,6.5,4.6,0,8.32-3.73,8.32-8.32,0-.1-.01-.19-.01-.29h.01v-18.07h9.05v18.07h.01c0,.1-.01.19-.01.29,0,4.6,3.73,8.32,8.32,8.32s8.32-3.73,8.32-8.32c0-.1-.01-.19-.01-.29h.01v-18.07h9.05v18.07h.01c0,.1-.01.19-.01.29,0,4.6,3.73,8.32,8.32,8.32s8.32-3.73,8.32-8.32c0-.1-.01-.19-.01-.29h.01v-18.07h24.36c5.45,15.54,20.24,26.68,37.63,26.68h39.88v-79.76h-39.88Z"/>
  </g>
  <g id="art">
    <g>
      <path class="st1" d="M304.99,452.72c-23.68-34.36-28.03-77.4-15.99-119.75l6.41,2.53c-12.89,41.12-9.68,82.5,12.74,115.04l-3.17,2.18Z"/>
      <path class="st6" d="M166.17,372.87s-20.21,26.12-38.94,61.61c-18.73,35.49-27.6,72.46-27.6,72.46,0,0,63.09,22.67,66.54,23.66,3.45.99,17.26,6.41,19.97-12.82.74-5.25,1.8-13.72,4.58-24.13l-10.09-3.83h0c-.09-.05-.19-.07-.28-.1-4.3-1.63-6.46-6.44-4.83-10.73,1.63-4.3,6.44-6.46,10.73-4.83.09.03.18.08.27.12h0s9.39,3.55,9.39,3.55c1.77-4.51,3.89-9.2,6.41-14.03l-5.44-2.06h0c-.09-.05-.19-.07-.28-.1-4.3-1.63-6.46-6.44-4.83-10.73,1.63-4.3,6.44-6.46,10.73-4.83.09.03.18.08.27.12h0s8.23,3.11,8.23,3.11c2.63-3.86,5.54-7.75,8.78-11.66l-6.64-2.52h0c-.09-.05-.19-.07-.28-.1-4.3-1.63-6.46-6.44-4.83-10.73,1.63-4.3,6.44-6.46,10.73-4.83.09.03.18.08.27.12h0s12.96,4.9,12.96,4.9c11.46-11.09,25.88-21.95,44.06-31.88,80.34-43.87-109.92-19.72-109.92-19.72Z"/>
      <path class="st3" d="M146.63,450.38c18.73-35.49,38.94-61.61,38.94-61.61,0,0,68.19-8.66,105.68-6.19,33.35-29.82-125.09-9.71-125.09-9.71,0,0-20.21,26.12-38.94,61.61-18.73,35.49-27.6,72.46-27.6,72.46,0,0,9.65,3.47,21.6,7.75,3.68-12.84,12.03-38.95,25.41-64.3Z"/>
      <ellipse class="st3" cx="281.26" cy="284.15" rx="191.51" ry="102.48"/>
      <path class="st7" d="M590.9,297.35c7.29,0,13.2-5.91,13.2-13.2s-5.91-13.2-13.2-13.2c-.16,0-.31.02-.46.02v-.02h-99.23v.02c-.15,0-.31-.02-.46-.02-7.29,0-13.2,5.91-13.2,13.2s5.91,13.2,13.2,13.2c.16,0,.31-.02.46-.02v.02h99.23v-.02c.15,0,.31.02.46.02Z"/>
      <ellipse class="st7" cx="134.43" cy="284.15" rx="61.35" ry="52.91"/>
      <path class="st6" d="M147.4,206.52c-28.03,0-53.82,6.1-74.35,16.32,33.23,5.69,58.28,30.97,58.28,61.3s-25.05,55.61-58.28,61.3c20.53,10.23,46.33,16.32,74.35,16.32,66.94,0,121.2-34.75,121.2-77.63s-54.26-77.63-121.2-77.63Z"/>
      <path class="st5" d="M352.39,176.79v19.7h-.03c0,.2.03.39.03.59,0,9.38-7.61,16.99-16.99,16.99s-16.99-7.61-16.99-16.99c0-.2.02-.39.03-.59h-.03v-25.54c-6.84-.85-13.8-1.53-20.87-2.02v27.56h-.03c0,.2.03.39.03.59,0,9.38-7.61,16.99-16.99,16.99s-16.99-7.61-16.99-16.99c0-.2.02-.39.03-.59h-.03v-28.55c-7.05.09-14.01.35-20.87.78v27.77h-.03c0,.2.03.39.03.59,0,9.38-7.61,16.99-16.99,16.99s-16.99-7.61-16.99-16.99c0-.2.02-.39.03-.59h-.03v-24.15c-31.55,4.79-60.19,13.26-84.17,24.48,46.27,15.68,78.3,49.58,78.3,88.88s-30.27,71.3-74.45,87.52c37.93,16.94,86.84,27.15,140.22,27.15,120.57,0,218.31-52.04,218.31-116.23,0-48.39-55.53-89.86-134.51-107.36Z"/>
      <g>
        <rect class="st0" x="292.84" y="262.71" width="11.34" height="42.88"/>
        <rect class="st0" x="311.45" y="262.71" width="11.34" height="42.88"/>
        <rect class="st0" x="330.06" y="262.71" width="11.34" height="42.88"/>
        <rect class="st0" x="367.27" y="262.71" width="11.34" height="42.88"/>
        <rect class="st0" x="348.66" y="262.71" width="11.34" height="42.88"/>
      </g>
      <g>
        <circle class="st2" cx="215.74" cy="284.15" r="51.95"/>
        <circle class="st3" cx="215.74" cy="284.15" r="29.61"/>
        <circle class="st4" cx="215.74" cy="284.15" r="12.91"/>
      </g>
      <path class="st6" d="M455.99,203.05c0-11.81-9.57-21.38-21.38-21.38s-21.38,9.57-21.38,21.38c0,.25.03.5.04.75h-.04v160.7h.04c0,.25-.04.49-.04.75,0,11.81,9.57,21.38,21.38,21.38s21.38-9.57,21.38-21.38c0-.25-.03-.5-.04-.75h.04v-160.7h-.04c0-.25.04-.49.04-.75Z"/>
      <path class="st3" d="M494.19,252.59c0-4.6-3.73-8.32-8.32-8.32s-8.32,3.73-8.32,8.32c0,.1.01.19.01.29h-.01v62.54h.01c0,.1-.01.19-.01.29,0,4.6,3.73,8.32,8.32,8.32s8.32-3.73,8.32-8.32c0-.1-.01-.19-.01-.29h.01v-62.54h-.01c0-.1.01-.19.01-.29Z"/>
      <path class="st3" d="M519.88,252.59c0-4.6-3.73-8.32-8.32-8.32s-8.32,3.73-8.32,8.32c0,.1.01.19.01.29h-.01v62.54h.01c0,.1-.01.19-.01.29,0,4.6,3.73,8.32,8.32,8.32s8.32-3.73,8.32-8.32c0-.1-.01-.19-.01-.29h.01v-62.54h-.01c0-.1.01-.19.01-.29Z"/>
      <path class="st3" d="M545.57,252.59c0-4.6-3.73-8.32-8.32-8.32s-8.32,3.73-8.32,8.32c0,.1.01.19.01.29h-.01v62.54h.01c0,.1-.01.19-.01.29,0,4.6,3.73,8.32,8.32,8.32s8.32-3.73,8.32-8.32c0-.1-.01-.19-.01-.29h.01v-62.54h-.01c0-.1.01-.19.01-.29Z"/>
      <path class="st4" d="M607.56,244.27c-22.03,0-39.88,17.86-39.88,39.88s17.86,39.88,39.88,39.88h39.88v-79.76h-39.88Z"/>
      <path class="st0" d="M217.15,279.83c0-41.73-20.83-79.64-54.78-107.68l-3.84,5.72c33.95,26.55,54.78,62.45,54.78,101.96h3.84Z"/>
    </g>
  </g>
</svg>